{
  "version": "1.1.6",
  "modules": [
    {
      "id": 1,
      "plugin": "Core",
      "version": "1.1.6",
      "model": "AudioInterface",
      "params": [],
      "leftModuleId": 24,
      "data": {
        "audio": {
          "driver": 5,
          "deviceName": "Apple Inc.: Built-in Output",
          "offset": 0,
          "maxChannels": 8,
          "sampleRate": 44100,
          "blockSize": 256
        }
      },
      "pos": [
        51,
        1
      ]
    },
    {
      "id": 6,
      "plugin": "Bogaudio",
      "version": "1.1.37",
      "model": "Bogaudio-Mix4",
      "params": [
        {
          "id": 0,
          "value": 0.808501005
        },
        {
          "id": 1,
          "value": -1.0
        },
        {
          "id": 2,
          "value": 0.0
        },
        {
          "id": 3,
          "value": 0.798090935
        },
        {
          "id": 4,
          "value": 0.0
        },
        {
          "id": 5,
          "value": 0.0
        },
        {
          "id": 6,
          "value": 0.806999683
        },
        {
          "id": 7,
          "value": 1.0
        },
        {
          "id": 8,
          "value": 0.0
        },
        {
          "id": 9,
          "value": 0.909090936
        },
        {
          "id": 10,
          "value": 0.0
        },
        {
          "id": 11,
          "value": 0.0
        },
        {
          "id": 12,
          "value": 0.84758985
        },
        {
          "id": 13,
          "value": 1.0
        },
        {
          "id": 14,
          "value": 0.0
        }
      ],
      "leftModuleId": 18,
      "rightModuleId": 24,
      "data": {
        "dim_decibels": 12.0,
        "poly_channel_offset": -1
      },
      "pos": [
        24,
        1
      ]
    },
    {
      "id": 11,
      "plugin": "AudibleInstruments",
      "version": "1.5.0",
      "model": "Stages",
      "params": [
        {
          "id": 0,
          "value": 0.5
        },
        {
          "id": 1,
          "value": 0.5
        },
        {
          "id": 2,
          "value": 0.5
        },
        {
          "id": 3,
          "value": 0.5
        },
        {
          "id": 4,
          "value": 0.5
        },
        {
          "id": 5,
          "value": 0.5
        },
        {
          "id": 6,
          "value": 0.0
        },
        {
          "id": 7,
          "value": 0.0
        },
        {
          "id": 8,
          "value": 0.0
        },
        {
          "id": 9,
          "value": 0.0
        },
        {
          "id": 10,
          "value": 0.0
        },
        {
          "id": 11,
          "value": 0.0
        },
        {
          "id": 12,
          "value": 0.156998634
        },
        {
          "id": 13,
          "value": 0.585999429
        },
        {
          "id": 14,
          "value": 0.0749997795
        },
        {
          "id": 15,
          "value": 0.662999451
        },
        {
          "id": 16,
          "value": 0.197999448
        },
        {
          "id": 17,
          "value": 0.573001325
        }
      ],
      "leftModuleId": 21,
      "data": {
        "configurations": [
          {
            "type": 0,
            "loop": false
          },
          {
            "type": 0,
            "loop": false
          },
          {
            "type": 0,
            "loop": false
          },
          {
            "type": 0,
            "loop": false
          },
          {
            "type": 0,
            "loop": false
          },
          {
            "type": 0,
            "loop": false
          }
        ]
      },
      "pos": [
        44,
        0
      ]
    },
    {
      "id": 4,
      "plugin": "AudibleInstruments",
      "version": "1.5.0",
      "model": "Marbles",
      "params": [
        {
          "id": 0,
          "value": 0.0
        },
        {
          "id": 1,
          "value": 0.0
        },
        {
          "id": 2,
          "value": 0.620499671
        },
        {
          "id": 3,
          "value": 0.00200014003
        },
        {
          "id": 4,
          "value": 0.251000643
        },
        {
          "id": 5,
          "value": 0.0
        },
        {
          "id": 6,
          "value": 0.0
        },
        {
          "id": 7,
          "value": 1.0
        },
        {
          "id": 8,
          "value": 0.778999388
        },
        {
          "id": 9,
          "value": 0.651499569
        },
        {
          "id": 10,
          "value": 0.0
        },
        {
          "id": 11,
          "value": 0.0
        },
        {
          "id": 12,
          "value": 0.0
        },
        {
          "id": 13,
          "value": 0.319500357
        },
        {
          "id": 14,
          "value": 0.5
        }
      ],
      "rightModuleId": 22,
      "data": {
        "t_deja_vu": false,
        "x_deja_vu": true,
        "t_mode": 1,
        "x_mode": 2,
        "t_range": 1,
        "x_range": 0,
        "external": false,
        "x_scale": 0,
        "y_divider_index": 8,
        "x_clock_source_internal": 0
      },
      "pos": [
        3,
        0
      ]
    },
    {
      "id": 18,
      "plugin": "Fundamental",
      "version": "1.4.0",
      "model": "VCA-1",
      "params": [
        {
          "id": 0,
          "value": 1.0
        },
        {
          "id": 1,
          "value": 1.0
        }
      ],
      "leftModuleId": 19,
      "rightModuleId": 6,
      "pos": [
        21,
        1
      ]
    },
    {
      "id": 19,
      "plugin": "Fundamental",
      "version": "1.4.0",
      "model": "VCA-1",
      "params": [
        {
          "id": 0,
          "value": 1.0
        },
        {
          "id": 1,
          "value": 1.0
        }
      ],
      "leftModuleId": 20,
      "rightModuleId": 18,
      "pos": [
        18,
        1
      ]
    },
    {
      "id": 20,
      "plugin": "Fundamental",
      "version": "1.4.0",
      "model": "VCA-1",
      "params": [
        {
          "id": 0,
          "value": 1.0
        },
        {
          "id": 1,
          "value": 1.0
        }
      ],
      "leftModuleId": 23,
      "rightModuleId": 19,
      "pos": [
        15,
        1
      ]
    },
    {
      "id": 21,
      "plugin": "Fundamental",
      "version": "1.4.0",
      "model": "VCO",
      "params": [
        {
          "id": 0,
          "value": 1.0
        },
        {
          "id": 1,
          "value": 0.0
        },
        {
          "id": 2,
          "value": -3.40199804
        },
        {
          "id": 3,
          "value": 0.0
        },
        {
          "id": 4,
          "value": 0.075000003
        },
        {
          "id": 5,
          "value": 0.285380125
        },
        {
          "id": 6,
          "value": 0.0
        }
      ],
      "leftModuleId": 27,
      "rightModuleId": 11,
      "pos": [
        34,
        0
      ]
    },
    {
      "id": 22,
      "plugin": "Fundamental",
      "version": "1.4.0",
      "model": "Merge",
      "params": [],
      "leftModuleId": 4,
      "rightModuleId": 27,
      "data": {
        "channels": -1
      },
      "pos": [
        21,
        0
      ]
    },
    {
      "id": 23,
      "plugin": "Fundamental",
      "version": "1.4.0",
      "model": "Split",
      "params": [],
      "leftModuleId": 29,
      "rightModuleId": 20,
      "pos": [
        10,
        1
      ]
    },
    {
      "id": 24,
      "plugin": "Valley",
      "version": "1.1.7",
      "model": "Plateau",
      "params": [
        {
          "id": 0,
          "value": 0.802000523
        },
        {
          "id": 1,
          "value": 0.625
        },
        {
          "id": 2,
          "value": 0.0
        },
        {
          "id": 3,
          "value": 3.81999874
        },
        {
          "id": 4,
          "value": 5.87499857
        },
        {
          "id": 5,
          "value": 0.201499969
        },
        {
          "id": 6,
          "value": 5.46999931
        },
        {
          "id": 7,
          "value": 0.65928787
        },
        {
          "id": 8,
          "value": 4.93000078
        },
        {
          "id": 9,
          "value": 7.25499821
        },
        {
          "id": 10,
          "value": 0.0
        },
        {
          "id": 11,
          "value": 0.5
        },
        {
          "id": 12,
          "value": 0.5
        },
        {
          "id": 13,
          "value": 0.0
        },
        {
          "id": 14,
          "value": 0.0
        },
        {
          "id": 15,
          "value": 0.0
        },
        {
          "id": 16,
          "value": 0.0
        },
        {
          "id": 17,
          "value": 0.0
        },
        {
          "id": 18,
          "value": 0.0
        },
        {
          "id": 19,
          "value": 0.0
        },
        {
          "id": 20,
          "value": 0.0
        },
        {
          "id": 21,
          "value": 0.0
        },
        {
          "id": 22,
          "value": 0.0
        },
        {
          "id": 23,
          "value": 0.0
        },
        {
          "id": 24,
          "value": 0.0
        },
        {
          "id": 25,
          "value": 0.0
        },
        {
          "id": 26,
          "value": 0.0
        },
        {
          "id": 27,
          "value": 0.0
        },
        {
          "id": 28,
          "value": 0.0
        },
        {
          "id": 29,
          "value": 0.0
        },
        {
          "id": 30,
          "value": 1.0
        }
      ],
      "leftModuleId": 6,
      "rightModuleId": 1,
      "data": {
        "frozen": false,
        "freezeToggle": false,
        "panelStyle": 0,
        "tuned": 0,
        "diffuseInput": 1,
        "preDelayCVSens": 0,
        "inputSensitivity": 0,
        "outputSaturation": 0
      },
      "pos": [
        39,
        1
      ]
    },
    {
      "id": 27,
      "plugin": "ML_modules",
      "version": "1.1.3",
      "model": "Quantum",
      "params": [
        {
          "id": 0,
          "value": 0.0
        },
        {
          "id": 1,
          "value": 0.0
        },
        {
          "id": 2,
          "value": 0.0
        },
        {
          "id": 3,
          "value": 0.0
        },
        {
          "id": 4,
          "value": 0.0
        },
        {
          "id": 5,
          "value": 0.0
        },
        {
          "id": 6,
          "value": 0.0
        },
        {
          "id": 7,
          "value": 0.0
        },
        {
          "id": 8,
          "value": 0.0
        },
        {
          "id": 9,
          "value": 0.0
        },
        {
          "id": 10,
          "value": 0.0
        },
        {
          "id": 11,
          "value": 0.0
        }
      ],
      "leftModuleId": 22,
      "rightModuleId": 21,
      "data": {
        "scale": [
          1,
          0,
          1,
          0,
          1,
          1,
          0,
          1,
          0,
          1,
          0,
          1
        ],
        "mode": 1,
        "transpose_select": 1,
        "toggle_mode": 0
      },
      "pos": [
        26,
        0
      ]
    },
    {
      "id": 29,
      "plugin": "Bogaudio",
      "version": "1.1.37",
      "model": "Bogaudio-LFO",
      "params": [
        {
          "id": 0,
          "value": 2.02800536
        },
        {
          "id": 1,
          "value": 0.0
        },
        {
          "id": 2,
          "value": 0.0
        },
        {
          "id": 3,
          "value": 0.0
        },
        {
          "id": 4,
          "value": 0.0
        },
        {
          "id": 5,
          "value": 1.0
        },
        {
          "id": 6,
          "value": 0.0
        }
      ],
      "rightModuleId": 23,
      "data": {
        "offset_cv_to_smoothing": false
      },
      "pos": [
        0,
        1
      ]
    }
  ],
  "cables": [
    {
      "id": 48,
      "outputModuleId": 20,
      "outputId": 0,
      "inputModuleId": 6,
      "inputId": 2,
      "color": "#c91847"
    },
    {
      "id": 49,
      "outputModuleId": 19,
      "outputId": 0,
      "inputModuleId": 6,
      "inputId": 5,
      "color": "#0986ad"
    },
    {
      "id": 50,
      "outputModuleId": 18,
      "outputId": 0,
      "inputModuleId": 6,
      "inputId": 8,
      "color": "#c9b70e"
    },
    {
      "id": 23,
      "outputModuleId": 4,
      "outputId": 0,
      "inputModuleId": 11,
      "inputId": 6,
      "color": "#c9b70e"
    },
    {
      "id": 53,
      "outputModuleId": 11,
      "outputId": 0,
      "inputModuleId": 20,
      "inputId": 0,
      "color": "#0986ad"
    },
    {
      "id": 54,
      "outputModuleId": 11,
      "outputId": 2,
      "inputModuleId": 19,
      "inputId": 0,
      "color": "#c9b70e"
    },
    {
      "id": 56,
      "outputModuleId": 4,
      "outputId": 4,
      "inputModuleId": 22,
      "inputId": 0,
      "color": "#c91847"
    },
    {
      "id": 57,
      "outputModuleId": 4,
      "outputId": 5,
      "inputModuleId": 22,
      "inputId": 1,
      "color": "#0986ad"
    },
    {
      "id": 58,
      "outputModuleId": 4,
      "outputId": 6,
      "inputModuleId": 22,
      "inputId": 2,
      "color": "#c9b70e"
    },
    {
      "id": 52,
      "outputModuleId": 4,
      "outputId": 2,
      "inputModuleId": 11,
      "inputId": 10,
      "color": "#c91847"
    },
    {
      "id": 42,
      "outputModuleId": 11,
      "outputId": 4,
      "inputModuleId": 18,
      "inputId": 0,
      "color": "#c91847"
    },
    {
      "id": 59,
      "outputModuleId": 22,
      "outputId": 0,
      "inputModuleId": 27,
      "inputId": 0,
      "color": "#0c8e15"
    },
    {
      "id": 83,
      "outputModuleId": 27,
      "outputId": 0,
      "inputModuleId": 21,
      "inputId": 0,
      "color": "#c9b70e"
    },
    {
      "id": 51,
      "outputModuleId": 4,
      "outputId": 1,
      "inputModuleId": 11,
      "inputId": 8,
      "color": "#0c8e15"
    },
    {
      "id": 62,
      "outputModuleId": 23,
      "outputId": 1,
      "inputModuleId": 19,
      "inputId": 1,
      "color": "#c9b70e"
    },
    {
      "id": 86,
      "outputModuleId": 23,
      "outputId": 0,
      "inputModuleId": 20,
      "inputId": 1,
      "color": "#0c8e15"
    },
    {
      "id": 63,
      "outputModuleId": 23,
      "outputId": 2,
      "inputModuleId": 18,
      "inputId": 1,
      "color": "#0c8e15"
    },
    {
      "id": 89,
      "outputModuleId": 24,
      "outputId": 0,
      "inputModuleId": 1,
      "inputId": 0,
      "color": "#0c8e15"
    },
    {
      "id": 90,
      "outputModuleId": 24,
      "outputId": 1,
      "inputModuleId": 1,
      "inputId": 1,
      "color": "#c91847"
    },
    {
      "id": 93,
      "outputModuleId": 6,
      "outputId": 0,
      "inputModuleId": 24,
      "inputId": 0,
      "color": "#0c8e15"
    },
    {
      "id": 94,
      "outputModuleId": 6,
      "outputId": 1,
      "inputModuleId": 24,
      "inputId": 1,
      "color": "#c91847"
    },
    {
      "id": 96,
      "outputModuleId": 19,
      "outputId": 0,
      "inputModuleId": 24,
      "inputId": 11,
      "color": "#c9b70e"
    },
    {
      "id": 101,
      "outputModuleId": 29,
      "outputId": 4,
      "inputModuleId": 21,
      "inputId": 1,
      "color": "#0986ad"
    },
    {
      "id": 60,
      "outputModuleId": 21,
      "outputId": 1,
      "inputModuleId": 23,
      "inputId": 0,
      "color": "#c91847"
    }
  ]
}