{
  "version": "1.1.6",
  "modules": [
    {
      "id": 1,
      "plugin": "Core",
      "version": "1.1.6",
      "model": "AudioInterface",
      "params": [],
      "leftModuleId": 18,
      "data": {
        "audio": {
          "driver": 5,
          "deviceName": "Apple Inc.: Built-in Output",
          "offset": 0,
          "maxChannels": 8,
          "sampleRate": 44100,
          "blockSize": 256
        }
      },
      "pos": [
        57,
        0
      ]
    },
    {
      "id": 18,
      "plugin": "Bogaudio",
      "version": "1.1.37",
      "model": "Bogaudio-Mix4",
      "params": [
        {
          "id": 0,
          "value": 0.675091088
        },
        {
          "id": 1,
          "value": -1.0
        },
        {
          "id": 2,
          "value": 0.0
        },
        {
          "id": 3,
          "value": 0.723090649
        },
        {
          "id": 4,
          "value": 1.0
        },
        {
          "id": 5,
          "value": 0.0
        },
        {
          "id": 6,
          "value": 0.909090936
        },
        {
          "id": 7,
          "value": 0.0
        },
        {
          "id": 8,
          "value": 0.0
        },
        {
          "id": 9,
          "value": 0.909090936
        },
        {
          "id": 10,
          "value": 0.0
        },
        {
          "id": 11,
          "value": 0.0
        },
        {
          "id": 12,
          "value": 0.909090936
        },
        {
          "id": 13,
          "value": 0.0
        },
        {
          "id": 14,
          "value": 0.0
        }
      ],
      "leftModuleId": 28,
      "rightModuleId": 1,
      "data": {
        "dim_decibels": 12.0,
        "poly_channel_offset": -1
      },
      "pos": [
        42,
        0
      ]
    },
    {
      "id": 19,
      "plugin": "ImpromptuModular",
      "version": "1.1.12",
      "model": "Clocked-Clkd",
      "params": [
        {
          "id": 0,
          "value": 2.0
        },
        {
          "id": 1,
          "value": -2.0
        },
        {
          "id": 2,
          "value": 0.0
        },
        {
          "id": 3,
          "value": 150.0
        },
        {
          "id": 4,
          "value": 0.0
        },
        {
          "id": 5,
          "value": 0.0
        },
        {
          "id": 6,
          "value": 0.0
        },
        {
          "id": 7,
          "value": 0.0
        },
        {
          "id": 8,
          "value": 0.0
        },
        {
          "id": 9,
          "value": 0.0
        }
      ],
      "rightModuleId": 23,
      "data": {
        "panelTheme": 0,
        "running": false,
        "bpmDetectionMode": false,
        "resetOnStartStop": 0,
        "ppqn": 4,
        "resetClockOutputsHigh": true,
        "momentaryRunInput": true,
        "displayIndex": 0,
        "trigOuts": [
          false,
          false,
          false,
          false
        ],
        "clockMaster": -1
      },
      "pos": [
        0,
        0
      ]
    },
    {
      "id": 23,
      "plugin": "JW-Modules",
      "version": "1.0.29",
      "model": "GridSeq",
      "params": [
        {
          "id": 0,
          "value": 0.0
        },
        {
          "id": 1,
          "value": 0.0
        },
        {
          "id": 2,
          "value": 0.0
        },
        {
          "id": 3,
          "value": 5.79519272
        },
        {
          "id": 4,
          "value": 0.808565617
        },
        {
          "id": 5,
          "value": 6.61527634
        },
        {
          "id": 6,
          "value": 7.94026899
        },
        {
          "id": 7,
          "value": 6.62946415
        },
        {
          "id": 8,
          "value": 8.89940834
        },
        {
          "id": 9,
          "value": 2.59736419
        },
        {
          "id": 10,
          "value": 9.15354919
        },
        {
          "id": 11,
          "value": 6.50611639
        },
        {
          "id": 12,
          "value": 8.09931183
        },
        {
          "id": 13,
          "value": 9.18048573
        },
        {
          "id": 14,
          "value": 1.54474378
        },
        {
          "id": 15,
          "value": 7.19634581
        },
        {
          "id": 16,
          "value": 6.48678684
        },
        {
          "id": 17,
          "value": 4.12683964
        },
        {
          "id": 18,
          "value": 3.13846707
        },
        {
          "id": 19,
          "value": 0.0
        },
        {
          "id": 20,
          "value": 0.0
        },
        {
          "id": 21,
          "value": 0.0
        },
        {
          "id": 22,
          "value": 0.0
        },
        {
          "id": 23,
          "value": 0.0
        },
        {
          "id": 24,
          "value": 0.0
        },
        {
          "id": 25,
          "value": 0.0
        },
        {
          "id": 26,
          "value": 0.0
        },
        {
          "id": 27,
          "value": 0.0
        },
        {
          "id": 28,
          "value": 0.0
        },
        {
          "id": 29,
          "value": 0.0
        },
        {
          "id": 30,
          "value": 0.0
        },
        {
          "id": 31,
          "value": 0.0
        },
        {
          "id": 32,
          "value": 0.0
        },
        {
          "id": 33,
          "value": 0.0
        },
        {
          "id": 34,
          "value": 0.0
        },
        {
          "id": 35,
          "value": 0.0
        },
        {
          "id": 36,
          "value": 9.0
        },
        {
          "id": 37,
          "value": 11.0
        },
        {
          "id": 38,
          "value": 0.0
        },
        {
          "id": 39,
          "value": 0.0
        },
        {
          "id": 40,
          "value": 0.0
        },
        {
          "id": 41,
          "value": 0.0
        },
        {
          "id": 42,
          "value": 0.0
        },
        {
          "id": 43,
          "value": 0.0
        },
        {
          "id": 44,
          "value": 0.0
        },
        {
          "id": 45,
          "value": 2.0
        },
        {
          "id": 46,
          "value": -1.0
        },
        {
          "id": 47,
          "value": 1.0
        },
        {
          "id": 48,
          "value": 1.0
        },
        {
          "id": 49,
          "value": 1.0
        },
        {
          "id": 50,
          "value": 1.0
        },
        {
          "id": 51,
          "value": 1.0
        },
        {
          "id": 52,
          "value": 1.0
        },
        {
          "id": 53,
          "value": 1.0
        },
        {
          "id": 54,
          "value": 1.0
        },
        {
          "id": 55,
          "value": 1.0
        },
        {
          "id": 56,
          "value": 1.0
        },
        {
          "id": 57,
          "value": 1.0
        },
        {
          "id": 58,
          "value": 1.0
        },
        {
          "id": 59,
          "value": 1.0
        },
        {
          "id": 60,
          "value": 1.0
        },
        {
          "id": 61,
          "value": 1.0
        },
        {
          "id": 62,
          "value": 1.0
        },
        {
          "id": 63,
          "value": 0.0
        }
      ],
      "leftModuleId": 19,
      "rightModuleId": 28,
      "data": {
        "running": true,
        "ignoreGateOnPitchOut": false,
        "gates": [
          1,
          0,
          1,
          1,
          0,
          1,
          1,
          0,
          1,
          1,
          0,
          1,
          1,
          0,
          1,
          1
        ],
        "gateMode": 0
      },
      "pos": [
        10,
        0
      ]
    },
    {
      "id": 24,
      "plugin": "JW-Modules",
      "version": "1.0.29",
      "model": "GridSeq",
      "params": [
        {
          "id": 0,
          "value": 0.0
        },
        {
          "id": 1,
          "value": 0.0
        },
        {
          "id": 2,
          "value": 0.0
        },
        {
          "id": 3,
          "value": 5.79519272
        },
        {
          "id": 4,
          "value": 0.808565617
        },
        {
          "id": 5,
          "value": 6.61527634
        },
        {
          "id": 6,
          "value": 7.94026899
        },
        {
          "id": 7,
          "value": 6.62946415
        },
        {
          "id": 8,
          "value": 8.89940834
        },
        {
          "id": 9,
          "value": 2.59736419
        },
        {
          "id": 10,
          "value": 9.15354919
        },
        {
          "id": 11,
          "value": 6.50611639
        },
        {
          "id": 12,
          "value": 8.09931183
        },
        {
          "id": 13,
          "value": 9.18048573
        },
        {
          "id": 14,
          "value": 1.54474378
        },
        {
          "id": 15,
          "value": 7.19634581
        },
        {
          "id": 16,
          "value": 6.48678684
        },
        {
          "id": 17,
          "value": 4.12683964
        },
        {
          "id": 18,
          "value": 3.13846707
        },
        {
          "id": 19,
          "value": 0.0
        },
        {
          "id": 20,
          "value": 0.0
        },
        {
          "id": 21,
          "value": 0.0
        },
        {
          "id": 22,
          "value": 0.0
        },
        {
          "id": 23,
          "value": 0.0
        },
        {
          "id": 24,
          "value": 0.0
        },
        {
          "id": 25,
          "value": 0.0
        },
        {
          "id": 26,
          "value": 0.0
        },
        {
          "id": 27,
          "value": 0.0
        },
        {
          "id": 28,
          "value": 0.0
        },
        {
          "id": 29,
          "value": 0.0
        },
        {
          "id": 30,
          "value": 0.0
        },
        {
          "id": 31,
          "value": 0.0
        },
        {
          "id": 32,
          "value": 0.0
        },
        {
          "id": 33,
          "value": 0.0
        },
        {
          "id": 34,
          "value": 0.0
        },
        {
          "id": 35,
          "value": 0.0
        },
        {
          "id": 36,
          "value": 9.0
        },
        {
          "id": 37,
          "value": 11.0
        },
        {
          "id": 38,
          "value": 0.0
        },
        {
          "id": 39,
          "value": 0.0
        },
        {
          "id": 40,
          "value": 0.0
        },
        {
          "id": 41,
          "value": 0.0
        },
        {
          "id": 42,
          "value": 0.0
        },
        {
          "id": 43,
          "value": 0.0
        },
        {
          "id": 44,
          "value": 0.0
        },
        {
          "id": 45,
          "value": 2.0
        },
        {
          "id": 46,
          "value": -1.0
        },
        {
          "id": 47,
          "value": 1.0
        },
        {
          "id": 48,
          "value": 1.0
        },
        {
          "id": 49,
          "value": 1.0
        },
        {
          "id": 50,
          "value": 1.0
        },
        {
          "id": 51,
          "value": 1.0
        },
        {
          "id": 52,
          "value": 1.0
        },
        {
          "id": 53,
          "value": 1.0
        },
        {
          "id": 54,
          "value": 1.0
        },
        {
          "id": 55,
          "value": 1.0
        },
        {
          "id": 56,
          "value": 1.0
        },
        {
          "id": 57,
          "value": 1.0
        },
        {
          "id": 58,
          "value": 1.0
        },
        {
          "id": 59,
          "value": 1.0
        },
        {
          "id": 60,
          "value": 1.0
        },
        {
          "id": 61,
          "value": 1.0
        },
        {
          "id": 62,
          "value": 1.0
        },
        {
          "id": 63,
          "value": 0.0
        }
      ],
      "leftModuleId": 25,
      "rightModuleId": 31,
      "data": {
        "running": true,
        "ignoreGateOnPitchOut": false,
        "gates": [
          1,
          0,
          1,
          1,
          0,
          1,
          1,
          0,
          1,
          1,
          0,
          1,
          1,
          0,
          1,
          1
        ],
        "gateMode": 0
      },
      "pos": [
        10,
        1
      ]
    },
    {
      "id": 25,
      "plugin": "ImpromptuModular",
      "version": "1.1.12",
      "model": "Clocked-Clkd",
      "params": [
        {
          "id": 0,
          "value": 2.0
        },
        {
          "id": 1,
          "value": -2.0
        },
        {
          "id": 2,
          "value": 0.0
        },
        {
          "id": 3,
          "value": 151.0
        },
        {
          "id": 4,
          "value": 0.0
        },
        {
          "id": 5,
          "value": 0.0
        },
        {
          "id": 6,
          "value": 0.0
        },
        {
          "id": 7,
          "value": 0.0
        },
        {
          "id": 8,
          "value": 0.0
        },
        {
          "id": 9,
          "value": 0.0
        }
      ],
      "rightModuleId": 24,
      "data": {
        "panelTheme": 0,
        "running": false,
        "bpmDetectionMode": false,
        "resetOnStartStop": 0,
        "ppqn": 4,
        "resetClockOutputsHigh": true,
        "momentaryRunInput": true,
        "displayIndex": 0,
        "trigOuts": [
          false,
          false,
          false,
          false
        ],
        "clockMaster": -1
      },
      "pos": [
        0,
        1
      ]
    },
    {
      "id": 28,
      "plugin": "AudibleInstruments",
      "version": "1.5.0",
      "model": "Plaits",
      "params": [
        {
          "id": 0,
          "value": 0.0
        },
        {
          "id": 1,
          "value": 0.0
        },
        {
          "id": 2,
          "value": -1.78400004
        },
        {
          "id": 3,
          "value": 0.233000055
        },
        {
          "id": 4,
          "value": 0.366500229
        },
        {
          "id": 5,
          "value": 0.5
        },
        {
          "id": 6,
          "value": 0.0
        },
        {
          "id": 7,
          "value": 0.0
        },
        {
          "id": 8,
          "value": 0.0
        },
        {
          "id": 9,
          "value": 0.5
        },
        {
          "id": 10,
          "value": 0.5
        }
      ],
      "leftModuleId": 23,
      "rightModuleId": 18,
      "data": {
        "lowCpu": false,
        "model": 6
      },
      "pos": [
        30,
        0
      ]
    },
    {
      "id": 31,
      "plugin": "AudibleInstruments",
      "version": "1.5.0",
      "model": "Plaits",
      "params": [
        {
          "id": 0,
          "value": 0.0
        },
        {
          "id": 1,
          "value": 0.0
        },
        {
          "id": 2,
          "value": -1.78400004
        },
        {
          "id": 3,
          "value": 0.233000055
        },
        {
          "id": 4,
          "value": 0.366500229
        },
        {
          "id": 5,
          "value": 0.5
        },
        {
          "id": 6,
          "value": 0.0
        },
        {
          "id": 7,
          "value": 0.0
        },
        {
          "id": 8,
          "value": 0.0
        },
        {
          "id": 9,
          "value": 0.5
        },
        {
          "id": 10,
          "value": 0.5
        }
      ],
      "leftModuleId": 24,
      "data": {
        "lowCpu": false,
        "model": 6
      },
      "pos": [
        30,
        1
      ]
    }
  ],
  "cables": [
    {
      "id": 70,
      "outputModuleId": 18,
      "outputId": 0,
      "inputModuleId": 1,
      "inputId": 0,
      "color": "#c91847"
    },
    {
      "id": 71,
      "outputModuleId": 18,
      "outputId": 1,
      "inputModuleId": 1,
      "inputId": 1,
      "color": "#c91847"
    },
    {
      "id": 72,
      "outputModuleId": 19,
      "outputId": 1,
      "inputModuleId": 23,
      "inputId": 3,
      "color": "#c9b70e"
    },
    {
      "id": 73,
      "outputModuleId": 19,
      "outputId": 2,
      "inputModuleId": 23,
      "inputId": 5,
      "color": "#0c8e15"
    },
    {
      "id": 74,
      "outputModuleId": 19,
      "outputId": 4,
      "inputModuleId": 23,
      "inputId": 2,
      "color": "#c91847"
    },
    {
      "id": 75,
      "outputModuleId": 25,
      "outputId": 1,
      "inputModuleId": 24,
      "inputId": 3,
      "color": "#0986ad"
    },
    {
      "id": 77,
      "outputModuleId": 19,
      "outputId": 4,
      "inputModuleId": 25,
      "inputId": 0,
      "color": "#0c8e15"
    },
    {
      "id": 76,
      "outputModuleId": 25,
      "outputId": 2,
      "inputModuleId": 24,
      "inputId": 5,
      "color": "#c9b70e"
    },
    {
      "id": 78,
      "outputModuleId": 25,
      "outputId": 4,
      "inputModuleId": 24,
      "inputId": 2,
      "color": "#c91847"
    },
    {
      "id": 84,
      "outputModuleId": 28,
      "outputId": 0,
      "inputModuleId": 18,
      "inputId": 2,
      "color": "#c91847"
    },
    {
      "id": 88,
      "outputModuleId": 23,
      "outputId": 1,
      "inputModuleId": 28,
      "inputId": 7,
      "color": "#c91847"
    },
    {
      "id": 89,
      "outputModuleId": 23,
      "outputId": 0,
      "inputModuleId": 28,
      "inputId": 5,
      "color": "#0986ad"
    },
    {
      "id": 90,
      "outputModuleId": 24,
      "outputId": 0,
      "inputModuleId": 31,
      "inputId": 5,
      "color": "#c9b70e"
    },
    {
      "id": 91,
      "outputModuleId": 24,
      "outputId": 1,
      "inputModuleId": 31,
      "inputId": 7,
      "color": "#0c8e15"
    },
    {
      "id": 92,
      "outputModuleId": 31,
      "outputId": 0,
      "inputModuleId": 18,
      "inputId": 5,
      "color": "#c91847"
    },
    {
      "id": 93,
      "outputModuleId": 19,
      "outputId": 5,
      "inputModuleId": 25,
      "inputId": 1,
      "color": "#0986ad"
    }
  ]
}